<?xml version="1.0" encoding="UTF-8" standalone="no"?>
<svg
   xmlns:dc="http://purl.org/dc/elements/1.1/"
   xmlns:cc="http://creativecommons.org/ns#"
   xmlns:rdf="http://www.w3.org/1999/02/22-rdf-syntax-ns#"
   xmlns:svg="http://www.w3.org/2000/svg"
   xmlns="http://www.w3.org/2000/svg"
   xmlns:sodipodi="http://sodipodi.sourceforge.net/DTD/sodipodi-0.dtd"
   xmlns:inkscape="http://www.inkscape.org/namespaces/inkscape"
   width="128"
   height="128"
   viewBox="0 0 128 128"
   version="1.1"
   id="svg847"
   sodipodi:docname="3helps.svg"
   inkscape:version="0.92.3 (2405546, 2018-03-11)"
   style="fill:none">
  <metadata
     id="metadata853">
    <rdf:RDF>
      <cc:Work
         rdf:about="">
        <dc:format>image/svg+xml</dc:format>
        <dc:type
           rdf:resource="http://purl.org/dc/dcmitype/StillImage" />
        <dc:title />
      </cc:Work>
    </rdf:RDF>
  </metadata>
  <defs
     id="defs851" />
  <sodipodi:namedview
     pagecolor="#ffffff"
     bordercolor="#666666"
     borderopacity="1"
     objecttolerance="10"
     gridtolerance="10"
     guidetolerance="10"
     inkscape:pageopacity="0"
     inkscape:pageshadow="2"
     inkscape:window-width="1920"
     inkscape:window-height="986"
     id="namedview849"
     showgrid="false"
     inkscape:zoom="4"
     inkscape:cx="38.431668"
     inkscape:cy="65.280093"
     inkscape:window-x="-11"
     inkscape:window-y="-11"
     inkscape:window-maximized="1"
     inkscape:current-layer="svg847" />
  <path
     style="fill:#fac05e"
     d="m 63.887297,-0.0546875 c -35.3139,0 -63.94140566,28.6274065 -63.94140566,63.9414065 0,34.433782 27.22103766,62.498611 61.31640566,63.876951 v -15.3164 C 35.624915,111.08283 15.254484,89.864201 15.254484,63.886719 c 0,-26.858619 21.774267,-48.63086 48.632813,-48.63086 21.925318,0 40.456033,14.510329 46.525383,34.451172 h 15.81836 C 119.77806,21.220463 94.325425,-0.0546875 63.887297,-0.0546875 Z"
     id="path835"
     inkscape:connector-curvature="0" />
  <path
     d="m 64.887794,84.987007 c -2.586248,0 -4.879387,-0.6075 -6.879419,-1.8225 -2.000032,-1.254192 -3.569021,-2.939515 -4.706971,-5.055965 -1.137948,-2.155644 -1.706923,-4.566047 -1.706923,-7.231207 0,-0.901452 0.224141,-1.626532 0.672424,-2.175241 0.482766,-0.587904 1.051741,-0.881855 1.706923,-0.881855 0.689667,0 1.258641,0.293951 1.706925,0.881855 0.448283,0.548709 0.672424,1.273789 0.672424,2.175241 0,1.606935 0.362074,3.09629 1.086224,4.468063 0.724149,1.33258 1.706924,2.410402 2.948322,3.233467 1.241399,0.78387 2.637973,1.175805 4.189721,1.175805 2.275898,0 4.103514,-0.705483 5.482845,-2.116451 1.414103,-1.45016 2.121011,-3.468627 2.121011,-6.055401 0,-1.646128 -0.31035,-3.115886 -0.931337,-4.409272 -0.620699,-1.33258 -1.46554,-2.390806 -2.534523,-3.174676 -1.068981,-0.783871 -2.275897,-1.175806 -3.620746,-1.175806 -0.758632,0 -1.396575,-0.293952 -1.913823,-0.881855 -0.482766,-0.587903 -0.72415,-1.312983 -0.72415,-2.175241 0,-0.862258 0.241384,-1.567741 0.72415,-2.116451 0.517248,-0.587903 1.155191,-0.881855 1.913823,-0.881855 0.965532,0 1.896581,-0.274355 2.793147,-0.823064 0.896566,-0.587903 1.637957,-1.352176 2.224173,-2.292821 0.586216,-0.979838 0.879324,-2.077257 0.879324,-3.292257 0,-1.724516 -0.551733,-3.174676 -1.655198,-4.350482 -1.103466,-1.175806 -2.517281,-1.763708 -4.241446,-1.763708 -1.310366,0 -2.517281,0.293951 -3.620747,0.881853 -1.068982,0.587903 -1.931065,1.371774 -2.586248,2.351613 -0.620699,0.979838 -0.931048,2.077257 -0.931048,3.292256 0,0.901451 -0.224142,1.665725 -0.672425,2.292822 -0.448283,0.587903 -1.017257,0.881854 -1.706924,0.881854 -0.655182,0 -1.224157,-0.274354 -1.706923,-0.823064 -0.448282,-0.587904 -0.672424,-1.312983 -0.672424,-2.175241 0,-2.273224 0.517249,-4.311288 1.551748,-6.114191 1.034499,-1.802902 2.448315,-3.21387 4.241446,-4.232902 1.793132,-1.058225 3.793163,-1.587338 6.000095,-1.587338 2.034515,0 3.86213,0.509516 5.482845,1.528549 1.655486,0.979837 2.948609,2.332014 3.879659,4.05653 0.965532,1.685321 1.448298,3.605806 1.448298,5.761449 0,1.528548 -0.310349,2.880725 -0.931049,4.056531 -0.586216,1.175807 -1.344848,2.194838 -2.275898,3.057096 -0.931048,0.823064 -1.91411,1.508951 -2.948609,2.05766 2.724467,1.058226 4.690016,2.66516 5.896932,4.820804 1.241398,2.116451 1.862098,4.546451 1.862098,7.289997 0,2.54758 -0.568975,4.840402 -1.706923,6.878466 -1.13795,1.998871 -2.655215,3.586208 -4.552083,4.762015 -1.896583,1.136612 -3.982822,1.704918 -6.25872,1.704918 z"
     id="path839"
     inkscape:connector-curvature="0"
     style="fill:#272727;stroke-width:1.53179407" />
</svg>
