<svg width="17" height="29" viewBox="0 0 17 29" fill="none" xmlns="http://www.w3.org/2000/svg">
<path d="M8.51702 28.964C6.93302 28.964 5.50502 28.592 4.23302 27.848C2.98502 27.08 2.00102 26.048 1.28102 24.752C0.561016 23.432 0.201016 21.956 0.201016 20.324C0.201016 18.788 0.549016 17.408 1.24502 16.184C1.94102 14.936 2.87702 13.952 4.05302 13.232C3.23702 12.608 2.58902 11.84 2.10902 10.928C1.62902 9.992 1.38902 8.96 1.38902 7.832C1.38902 6.464 1.70102 5.252 2.32502 4.196C2.94902 3.116 3.78902 2.264 4.84502 1.64C5.92502 0.991998 7.14902 0.667998 8.51702 0.667998C9.88502 0.643998 11.097 0.943999 12.153 1.568C13.233 2.192 14.085 3.044 14.709 4.124C15.333 5.204 15.633 6.44 15.609 7.832C15.609 8.96 15.369 9.992 14.889 10.928C14.409 11.84 13.761 12.596 12.945 13.196C14.121 13.916 15.057 14.9 15.753 16.148C16.449 17.396 16.797 18.788 16.797 20.324C16.797 21.956 16.425 23.432 15.681 24.752C14.961 26.048 13.977 27.08 12.729 27.848C11.481 28.592 10.077 28.964 8.51702 28.964ZM8.51702 11.648C9.52502 11.648 10.353 11.264 11.001 10.496C11.673 9.728 12.021 8.804 12.045 7.724C12.069 6.644 11.745 5.756 11.073 5.06C10.401 4.364 9.54902 4.016 8.51702 4.016C7.50902 4.016 6.66902 4.364 5.99702 5.06C5.32502 5.756 4.97702 6.644 4.95302 7.724C4.92902 8.804 5.25302 9.728 5.92502 10.496C6.62102 11.264 7.48502 11.648 8.51702 11.648ZM8.51702 25.652C9.40502 25.652 10.197 25.412 10.893 24.932C11.613 24.452 12.177 23.816 12.585 23.024C12.993 22.208 13.197 21.308 13.197 20.324C13.221 19.364 13.029 18.512 12.621 17.768C12.213 17 11.649 16.4 10.929 15.968C10.233 15.512 9.42902 15.284 8.51702 15.284C7.62902 15.284 6.82502 15.512 6.10502 15.968C5.38502 16.4 4.82102 17 4.41302 17.768C4.00502 18.512 3.80102 19.364 3.80102 20.324C3.80102 21.308 3.99302 22.208 4.37702 23.024C4.78502 23.816 5.34902 24.452 6.06902 24.932C6.78902 25.412 7.60502 25.652 8.51702 25.652Z" fill="#272727"/>
</svg>
