<?xml version="1.0" encoding="UTF-8" standalone="no"?>
<svg
   xmlns:dc="http://purl.org/dc/elements/1.1/"
   xmlns:cc="http://creativecommons.org/ns#"
   xmlns:rdf="http://www.w3.org/1999/02/22-rdf-syntax-ns#"
   xmlns:svg="http://www.w3.org/2000/svg"
   xmlns="http://www.w3.org/2000/svg"
   xmlns:sodipodi="http://sodipodi.sourceforge.net/DTD/sodipodi-0.dtd"
   xmlns:inkscape="http://www.inkscape.org/namespaces/inkscape"
   width="128"
   height="128"
   viewBox="0 0 128 128"
   version="1.1"
   id="svg847"
   sodipodi:docname="Donations.svg"
   inkscape:version="0.92.3 (2405546, 2018-03-11)"
   style="fill:none">
  <metadata
     id="metadata853">
    <rdf:RDF>
      <cc:Work
         rdf:about="">
        <dc:format>image/svg+xml</dc:format>
        <dc:type
           rdf:resource="http://purl.org/dc/dcmitype/StillImage" />
        <dc:title></dc:title>
      </cc:Work>
    </rdf:RDF>
  </metadata>
  <defs
     id="defs851" />
  <sodipodi:namedview
     pagecolor="#ffffff"
     bordercolor="#666666"
     borderopacity="1"
     objecttolerance="10"
     gridtolerance="10"
     guidetolerance="10"
     inkscape:pageopacity="0"
     inkscape:pageshadow="2"
     inkscape:window-width="1920"
     inkscape:window-height="986"
     id="namedview849"
     showgrid="false"
     inkscape:zoom="3.853732"
     inkscape:cx="-14.029822"
     inkscape:cy="62.712076"
     inkscape:window-x="-11"
     inkscape:window-y="-11"
     inkscape:window-maximized="1"
     inkscape:current-layer="svg847" />
  <path
     style="fill:#59cd90;stroke-width:1.57236326"
     d="M 63.06961,0.74526307 A 62.51198,63.279428 0 0 0 0.55830205,64.025925 62.51198,63.279428 0 0 0 63.06961,127.30467 v -15.82016 c -25.893243,0 -46.883007,-21.247458 -46.883007,-47.458585 0,-26.211129 20.989764,-47.460497 46.883007,-47.460497 25.893242,0 46.8849,22.059344 46.8849,47.460497 0,7.671562 -1.92611,15.030673 -5.31468,21.575214 l 1.40666,-1.01053 11.00749,7.910083 h 1.83018 A 62.51198,63.279428 0 0 0 125.58282,64.025925 62.51198,63.279428 0 0 0 63.06961,0.74526307 Z"
     id="circle1518"
     inkscape:connector-curvature="0" />
  <path
     inkscape:connector-curvature="0"
     style="fill:#272727;stroke-width:1.61442161"
     d="m 63.912175,85.473525 c -2.557243,0 -4.862637,-0.60057 -6.916182,-1.8017 -2.014798,-1.23987 -3.603389,-2.90596 -4.765772,-4.99825 -1.162384,-2.13103 -1.743575,-4.513917 -1.743575,-7.148653 0,-2.479752 0.561818,-4.707653 1.685456,-6.683705 1.123637,-2.014799 2.634736,-3.603389 4.533295,-4.765773 -1.317368,-1.007399 -2.363513,-2.247275 -3.138435,-3.719627 -0.774922,-1.511099 -1.162384,-3.177182 -1.162384,-4.998249 0,-2.208529 0.5037,-4.165208 1.511099,-5.870037 1.007399,-1.743576 2.363513,-3.119063 4.068342,-4.126462 1.743576,-1.046145 3.719628,-1.569218 5.928156,-1.569218 2.208529,-0.03875 4.165208,0.445581 5.870037,1.45298 1.743576,1.007399 3.119063,2.382886 4.126462,4.126461 1.007399,1.743576 1.491725,3.739001 1.452979,5.986276 0,1.821067 -0.387461,3.48715 -1.162383,4.998249 -0.774923,1.472352 -1.821068,2.692855 -3.138436,3.661508 1.89856,1.162383 3.409658,2.750974 4.533296,4.765772 1.123637,2.014799 1.685456,4.262073 1.685456,6.741825 0,2.634736 -0.600565,5.017623 -1.801694,7.148653 -1.162384,2.09229 -2.750975,3.75838 -4.765773,4.99825 -2.014798,1.20113 -4.281446,1.8017 -6.799944,1.8017 z m 0,-27.955325 c 1.627337,0 2.964078,-0.619938 4.010224,-1.859813 1.084891,-1.239876 1.64671,-2.731602 1.685456,-4.475177 0.03875,-1.743575 -0.484327,-3.177182 -1.569218,-4.300819 -1.084891,-1.123637 -2.460379,-1.685456 -4.126462,-1.685456 -1.627337,0 -2.983451,0.561819 -4.068342,1.685456 -1.084891,1.123637 -1.64671,2.557244 -1.685456,4.300819 -0.03875,1.743575 0.484326,3.235301 1.569218,4.475177 1.123637,1.239875 2.518497,1.859813 4.18458,1.859813 z m 0,22.608355 c 1.433607,0 2.712229,-0.38746 3.835866,-1.16238 1.162384,-0.77492 2.072917,-1.80169 2.731601,-3.08031 0.658684,-1.317373 0.988026,-2.770352 0.988026,-4.358943 0.03875,-1.549845 -0.271222,-2.925332 -0.929906,-4.126462 -0.658684,-1.239875 -1.569218,-2.208528 -2.731602,-2.905958 -1.123637,-0.736177 -2.421632,-1.104265 -3.893985,-1.104265 -1.433606,0 -2.731601,0.368088 -3.893984,1.104265 -1.162384,0.69743 -2.072918,1.666083 -2.731602,2.905958 -0.658684,1.20113 -0.988026,2.576617 -0.988026,4.126462 0,1.588591 0.309969,3.04157 0.929907,4.358943 0.658684,1.27862 1.569218,2.30539 2.731601,3.08031 1.162384,0.77492 2.479752,1.16238 3.952104,1.16238 z"
     id="path1526" />
</svg>
