<svg width="192" height="48" viewBox="0 0 192 48" fill="none" xmlns="http://www.w3.org/2000/svg">
<rect width="192" height="48" rx="10" fill="#3FA7D6"/>
<path d="M29.5429 29C29.3375 29 29.1649 28.93 29.0249 28.79C28.8849 28.65 28.8149 28.4773 28.8149 28.272V18.794C28.8149 18.5793 28.8849 18.4067 29.0249 18.276C29.1649 18.136 29.3375 18.066 29.5429 18.066H35.8709C36.0855 18.066 36.2582 18.1313 36.3889 18.262C36.5195 18.3833 36.5849 18.5467 36.5849 18.752C36.5849 18.948 36.5195 19.1067 36.3889 19.228C36.2582 19.3493 36.0855 19.41 35.8709 19.41H30.2709V22.812H34.2889C34.5035 22.812 34.6762 22.8773 34.8069 23.008C34.9375 23.1293 35.0029 23.288 35.0029 23.484C35.0029 23.68 34.9375 23.8433 34.8069 23.974C34.6762 24.0953 34.5035 24.156 34.2889 24.156H30.2709V28.272C30.2709 28.4773 30.2009 28.65 30.0609 28.79C29.9209 28.93 29.7482 29 29.5429 29ZM39.1609 29C38.9555 29 38.7829 28.9347 38.6429 28.804C38.5122 28.664 38.4469 28.4913 38.4469 28.286V22.056C38.4469 21.8413 38.5122 21.6687 38.6429 21.538C38.7829 21.4073 38.9555 21.342 39.1609 21.342C39.3755 21.342 39.5482 21.4073 39.6789 21.538C39.8095 21.6687 39.8749 21.8413 39.8749 22.056V28.286C39.8749 28.4913 39.8095 28.664 39.6789 28.804C39.5482 28.9347 39.3755 29 39.1609 29ZM39.1609 20.096C38.9089 20.096 38.6895 20.0073 38.5029 19.83C38.3255 19.6433 38.2369 19.424 38.2369 19.172C38.2369 18.92 38.3255 18.7053 38.5029 18.528C38.6895 18.3413 38.9089 18.248 39.1609 18.248C39.4129 18.248 39.6275 18.3413 39.8049 18.528C39.9915 18.7053 40.0849 18.92 40.0849 19.172C40.0849 19.424 39.9915 19.6433 39.8049 19.83C39.6275 20.0073 39.4129 20.096 39.1609 20.096ZM43.2455 29.014C43.0402 29.014 42.8675 28.9487 42.7275 28.818C42.5968 28.678 42.5315 28.5053 42.5315 28.3V22.056C42.5315 21.8413 42.5968 21.6687 42.7275 21.538C42.8675 21.4073 43.0402 21.342 43.2455 21.342C43.4602 21.342 43.6328 21.4073 43.7635 21.538C43.8942 21.6687 43.9595 21.8413 43.9595 22.056V22.21C44.2488 21.9207 44.5988 21.692 45.0095 21.524C45.4202 21.356 45.8635 21.272 46.3395 21.272C46.9835 21.272 47.5575 21.412 48.0615 21.692C48.5748 21.9627 48.9762 22.364 49.2655 22.896C49.5642 23.428 49.7135 24.0813 49.7135 24.856V28.3C49.7135 28.5053 49.6435 28.678 49.5035 28.818C49.3728 28.9487 49.2048 29.014 48.9995 29.014C48.7942 29.014 48.6215 28.9487 48.4815 28.818C48.3508 28.678 48.2855 28.5053 48.2855 28.3V24.856C48.2855 24.0627 48.0708 23.484 47.6415 23.12C47.2215 22.7467 46.6942 22.56 46.0595 22.56C45.6675 22.56 45.3128 22.6393 44.9955 22.798C44.6782 22.9567 44.4262 23.1713 44.2395 23.442C44.0528 23.7033 43.9595 24.0067 43.9595 24.352V28.3C43.9595 28.5053 43.8942 28.678 43.7635 28.818C43.6328 28.9487 43.4602 29.014 43.2455 29.014ZM55.5465 29.056C54.8185 29.056 54.1605 28.888 53.5725 28.552C52.9938 28.2067 52.5318 27.74 52.1865 27.152C51.8505 26.564 51.6825 25.9013 51.6825 25.164C51.6825 24.4267 51.8365 23.7687 52.1445 23.19C52.4618 22.602 52.8911 22.14 53.4325 21.804C53.9738 21.4587 54.5851 21.286 55.2665 21.286C55.8171 21.286 56.3258 21.4027 56.7925 21.636C57.2591 21.86 57.6511 22.168 57.9685 22.56V18.78C57.9685 18.5653 58.0338 18.3927 58.1645 18.262C58.3045 18.1313 58.4771 18.066 58.6825 18.066C58.8971 18.066 59.0698 18.1313 59.2005 18.262C59.3311 18.3927 59.3965 18.5653 59.3965 18.78V25.164C59.3965 25.9013 59.2238 26.564 58.8785 27.152C58.5425 27.74 58.0851 28.2067 57.5065 28.552C56.9278 28.888 56.2745 29.056 55.5465 29.056ZM55.5465 27.796C56.0225 27.796 56.4471 27.684 56.8205 27.46C57.1938 27.2267 57.4878 26.9093 57.7025 26.508C57.9171 26.1067 58.0245 25.6587 58.0245 25.164C58.0245 24.66 57.9171 24.212 57.7025 23.82C57.4878 23.428 57.1938 23.12 56.8205 22.896C56.4471 22.6627 56.0225 22.546 55.5465 22.546C55.0798 22.546 54.6551 22.6627 54.2725 22.896C53.8991 23.12 53.6005 23.428 53.3765 23.82C53.1618 24.212 53.0545 24.66 53.0545 25.164C53.0545 25.6587 53.1618 26.1067 53.3765 26.508C53.6005 26.9093 53.8991 27.2267 54.2725 27.46C54.6551 27.684 55.0798 27.796 55.5465 27.796ZM67.7838 29C67.6344 29 67.4944 28.958 67.3638 28.874C67.2424 28.7807 67.1584 28.6687 67.1118 28.538L65.0398 22.322C64.9651 22.0327 64.9651 21.7993 65.0398 21.622C65.1238 21.4353 65.3011 21.342 65.5718 21.342C65.7491 21.342 65.8938 21.3933 66.0058 21.496C66.1271 21.5893 66.2251 21.7527 66.2998 21.986L67.8118 26.704L69.2398 21.874C69.2864 21.7153 69.3658 21.5893 69.4778 21.496C69.5898 21.3933 69.7438 21.342 69.9398 21.342C70.1264 21.342 70.2758 21.3933 70.3878 21.496C70.5091 21.5893 70.5884 21.7153 70.6258 21.874L71.8858 26.802L73.4258 21.986C73.5564 21.5567 73.7991 21.342 74.1538 21.342C74.4151 21.342 74.5924 21.4353 74.6858 21.622C74.7791 21.7993 74.7744 22.0327 74.6718 22.322L72.5998 28.538C72.5624 28.6687 72.4831 28.7807 72.3618 28.874C72.2404 28.958 72.1004 29 71.9418 29C71.7924 29 71.6524 28.958 71.5218 28.874C71.3911 28.7807 71.3071 28.6687 71.2698 28.538L69.8978 23.456L68.4558 28.538C68.4184 28.6687 68.3344 28.7807 68.2038 28.874C68.0824 28.958 67.9424 29 67.7838 29ZM76.9193 29.014C76.714 29.014 76.5413 28.9487 76.4013 28.818C76.2706 28.678 76.2053 28.5053 76.2053 28.3V22.056C76.2053 21.8413 76.2706 21.6687 76.4013 21.538C76.5413 21.4073 76.714 21.342 76.9193 21.342C77.134 21.342 77.3066 21.4073 77.4373 21.538C77.568 21.6687 77.6333 21.8413 77.6333 22.056V22.21C77.9226 21.9207 78.2726 21.692 78.6833 21.524C79.094 21.356 79.5373 21.272 80.0133 21.272C80.6573 21.272 81.2313 21.412 81.7353 21.692C82.2486 21.9627 82.65 22.364 82.9393 22.896C83.238 23.428 83.3873 24.0813 83.3873 24.856V28.3C83.3873 28.5053 83.3173 28.678 83.1773 28.818C83.0466 28.9487 82.8786 29.014 82.6733 29.014C82.468 29.014 82.2953 28.9487 82.1553 28.818C82.0246 28.678 81.9593 28.5053 81.9593 28.3V24.856C81.9593 24.0627 81.7446 23.484 81.3153 23.12C80.8953 22.7467 80.368 22.56 79.7333 22.56C79.3413 22.56 78.9866 22.6393 78.6693 22.798C78.352 22.9567 78.1 23.1713 77.9133 23.442C77.7266 23.7033 77.6333 24.0067 77.6333 24.352V28.3C77.6333 28.5053 77.568 28.678 77.4373 28.818C77.3066 28.9487 77.134 29.014 76.9193 29.014ZM76.9193 26.214C76.714 26.214 76.5413 26.1487 76.4013 26.018C76.2706 25.878 76.2053 25.7053 76.2053 25.5V18.78C76.2053 18.5653 76.2706 18.3927 76.4013 18.262C76.5413 18.1313 76.714 18.066 76.9193 18.066C77.134 18.066 77.3066 18.1313 77.4373 18.262C77.568 18.3927 77.6333 18.5653 77.6333 18.78V25.5C77.6333 25.7053 77.568 25.878 77.4373 26.018C77.3066 26.1487 77.134 26.214 76.9193 26.214ZM89.36 29.056C88.5853 29.056 87.8946 28.8927 87.288 28.566C86.6906 28.23 86.2193 27.7727 85.874 27.194C85.538 26.606 85.37 25.934 85.37 25.178C85.37 24.4127 85.5286 23.7407 85.846 23.162C86.1726 22.574 86.6206 22.1167 87.19 21.79C87.7593 21.454 88.4126 21.286 89.15 21.286C89.878 21.286 90.5033 21.4493 91.026 21.776C91.5486 22.0933 91.9453 22.5367 92.216 23.106C92.496 23.666 92.636 24.3147 92.636 25.052C92.636 25.2293 92.5753 25.3787 92.454 25.5C92.3326 25.612 92.1786 25.668 91.992 25.668H86.672C86.7746 26.312 87.0686 26.8393 87.554 27.25C88.0486 27.6513 88.6506 27.852 89.36 27.852C89.6493 27.852 89.9433 27.8007 90.242 27.698C90.55 27.586 90.7973 27.46 90.984 27.32C91.124 27.2173 91.2733 27.166 91.432 27.166C91.6 27.1567 91.7446 27.2033 91.866 27.306C92.0246 27.446 92.1086 27.6 92.118 27.768C92.1273 27.936 92.0526 28.0807 91.894 28.202C91.5766 28.454 91.18 28.6593 90.704 28.818C90.2373 28.9767 89.7893 29.056 89.36 29.056ZM89.15 22.49C88.4593 22.49 87.904 22.6813 87.484 23.064C87.064 23.4467 86.798 23.9413 86.686 24.548H91.348C91.264 23.9507 91.0353 23.4607 90.662 23.078C90.2886 22.686 89.7846 22.49 89.15 22.49ZM95.1573 29C94.6906 29 94.4573 28.7667 94.4573 28.3V22.042C94.4573 21.5753 94.6906 21.342 95.1573 21.342C95.6239 21.342 95.8573 21.5753 95.8573 22.042V22.308C96.1373 21.9813 96.4779 21.7247 96.8793 21.538C97.2899 21.3513 97.7333 21.258 98.2093 21.258C98.7693 21.258 99.1846 21.3513 99.4553 21.538C99.7353 21.7153 99.8426 21.93 99.7773 22.182C99.7306 22.378 99.6373 22.5087 99.4973 22.574C99.3573 22.63 99.1939 22.6393 99.0073 22.602C98.4099 22.4807 97.8733 22.4713 97.3973 22.574C96.9213 22.6767 96.5433 22.868 96.2633 23.148C95.9926 23.428 95.8573 23.7827 95.8573 24.212V28.3C95.8573 28.7667 95.6239 29 95.1573 29ZM104.303 29.056C103.529 29.056 102.838 28.8927 102.231 28.566C101.634 28.23 101.163 27.7727 100.817 27.194C100.481 26.606 100.313 25.934 100.313 25.178C100.313 24.4127 100.472 23.7407 100.789 23.162C101.116 22.574 101.564 22.1167 102.133 21.79C102.703 21.454 103.356 21.286 104.093 21.286C104.821 21.286 105.447 21.4493 105.969 21.776C106.492 22.0933 106.889 22.5367 107.159 23.106C107.439 23.666 107.579 24.3147 107.579 25.052C107.579 25.2293 107.519 25.3787 107.397 25.5C107.276 25.612 107.122 25.668 106.935 25.668H101.615C101.718 26.312 102.012 26.8393 102.497 27.25C102.992 27.6513 103.594 27.852 104.303 27.852C104.593 27.852 104.887 27.8007 105.185 27.698C105.493 27.586 105.741 27.46 105.927 27.32C106.067 27.2173 106.217 27.166 106.375 27.166C106.543 27.1567 106.688 27.2033 106.809 27.306C106.968 27.446 107.052 27.6 107.061 27.768C107.071 27.936 106.996 28.0807 106.837 28.202C106.52 28.454 106.123 28.6593 105.647 28.818C105.181 28.9767 104.733 29.056 104.303 29.056ZM104.093 22.49C103.403 22.49 102.847 22.6813 102.427 23.064C102.007 23.4467 101.741 23.9413 101.629 24.548H106.291C106.207 23.9507 105.979 23.4607 105.605 23.078C105.232 22.686 104.728 22.49 104.093 22.49ZM116.288 29C115.822 29 115.402 28.8833 115.028 28.65C114.655 28.4073 114.361 28.0807 114.146 27.67C113.932 27.2593 113.824 26.7973 113.824 26.284V22.826H113.18C112.984 22.826 112.826 22.77 112.704 22.658C112.583 22.546 112.522 22.406 112.522 22.238C112.522 22.0513 112.583 21.902 112.704 21.79C112.826 21.678 112.984 21.622 113.18 21.622H113.824V19.606C113.824 19.4007 113.89 19.2327 114.02 19.102C114.151 18.9713 114.319 18.906 114.524 18.906C114.73 18.906 114.898 18.9713 115.028 19.102C115.159 19.2327 115.224 19.4007 115.224 19.606V21.622H116.414C116.61 21.622 116.769 21.678 116.89 21.79C117.012 21.902 117.072 22.0513 117.072 22.238C117.072 22.406 117.012 22.546 116.89 22.658C116.769 22.77 116.61 22.826 116.414 22.826H115.224V26.284C115.224 26.6573 115.327 26.97 115.532 27.222C115.738 27.474 115.99 27.6 116.288 27.6H116.764C116.932 27.6 117.072 27.6653 117.184 27.796C117.306 27.9267 117.366 28.0947 117.366 28.3C117.366 28.5053 117.287 28.6733 117.128 28.804C116.979 28.9347 116.783 29 116.54 29H116.288ZM122.593 29.056C121.837 29.056 121.17 28.8927 120.591 28.566C120.013 28.23 119.555 27.7727 119.219 27.194C118.893 26.606 118.729 25.934 118.729 25.178C118.729 24.4127 118.893 23.7407 119.219 23.162C119.555 22.574 120.013 22.1167 120.591 21.79C121.17 21.454 121.837 21.286 122.593 21.286C123.34 21.286 124.003 21.454 124.581 21.79C125.16 22.1167 125.613 22.574 125.939 23.162C126.275 23.7407 126.443 24.4127 126.443 25.178C126.443 25.934 126.28 26.606 125.953 27.194C125.627 27.7727 125.174 28.23 124.595 28.566C124.017 28.8927 123.349 29.056 122.593 29.056ZM122.593 27.796C123.079 27.796 123.508 27.684 123.881 27.46C124.255 27.236 124.544 26.928 124.749 26.536C124.964 26.144 125.071 25.6913 125.071 25.178C125.071 24.6647 124.964 24.212 124.749 23.82C124.544 23.4187 124.255 23.106 123.881 22.882C123.508 22.658 123.079 22.546 122.593 22.546C122.108 22.546 121.679 22.658 121.305 22.882C120.932 23.106 120.638 23.4187 120.423 23.82C120.209 24.212 120.101 24.6647 120.101 25.178C120.101 25.6913 120.209 26.144 120.423 26.536C120.638 26.928 120.932 27.236 121.305 27.46C121.679 27.684 122.108 27.796 122.593 27.796ZM133.384 29.014C133.179 29.014 133.006 28.9487 132.866 28.818C132.735 28.678 132.67 28.5053 132.67 28.3V22.056C132.67 21.8413 132.735 21.6687 132.866 21.538C133.006 21.4073 133.179 21.342 133.384 21.342C133.599 21.342 133.771 21.4073 133.902 21.538C134.033 21.6687 134.098 21.8413 134.098 22.056V22.21C134.387 21.9207 134.737 21.692 135.148 21.524C135.559 21.356 136.002 21.272 136.478 21.272C137.122 21.272 137.696 21.412 138.2 21.692C138.713 21.9627 139.115 22.364 139.404 22.896C139.703 23.428 139.852 24.0813 139.852 24.856V28.3C139.852 28.5053 139.782 28.678 139.642 28.818C139.511 28.9487 139.343 29.014 139.138 29.014C138.933 29.014 138.76 28.9487 138.62 28.818C138.489 28.678 138.424 28.5053 138.424 28.3V24.856C138.424 24.0627 138.209 23.484 137.78 23.12C137.36 22.7467 136.833 22.56 136.198 22.56C135.806 22.56 135.451 22.6393 135.134 22.798C134.817 22.9567 134.565 23.1713 134.378 23.442C134.191 23.7033 134.098 24.0067 134.098 24.352V28.3C134.098 28.5053 134.033 28.678 133.902 28.818C133.771 28.9487 133.599 29.014 133.384 29.014ZM133.384 26.214C133.179 26.214 133.006 26.1487 132.866 26.018C132.735 25.878 132.67 25.7053 132.67 25.5V18.78C132.67 18.5653 132.735 18.3927 132.866 18.262C133.006 18.1313 133.179 18.066 133.384 18.066C133.599 18.066 133.771 18.1313 133.902 18.262C134.033 18.3927 134.098 18.5653 134.098 18.78V25.5C134.098 25.7053 134.033 25.878 133.902 26.018C133.771 26.1487 133.599 26.214 133.384 26.214ZM145.825 29.056C145.05 29.056 144.359 28.8927 143.753 28.566C143.155 28.23 142.684 27.7727 142.339 27.194C142.003 26.606 141.835 25.934 141.835 25.178C141.835 24.4127 141.993 23.7407 142.311 23.162C142.637 22.574 143.085 22.1167 143.655 21.79C144.224 21.454 144.877 21.286 145.615 21.286C146.343 21.286 146.968 21.4493 147.491 21.776C148.013 22.0933 148.41 22.5367 148.681 23.106C148.961 23.666 149.101 24.3147 149.101 25.052C149.101 25.2293 149.04 25.3787 148.919 25.5C148.797 25.612 148.643 25.668 148.457 25.668H143.137C143.239 26.312 143.533 26.8393 144.019 27.25C144.513 27.6513 145.115 27.852 145.825 27.852C146.114 27.852 146.408 27.8007 146.707 27.698C147.015 27.586 147.262 27.46 147.449 27.32C147.589 27.2173 147.738 27.166 147.897 27.166C148.065 27.1567 148.209 27.2033 148.331 27.306C148.489 27.446 148.573 27.6 148.583 27.768C148.592 27.936 148.517 28.0807 148.359 28.202C148.041 28.454 147.645 28.6593 147.169 28.818C146.702 28.9767 146.254 29.056 145.825 29.056ZM145.615 22.49C144.924 22.49 144.369 22.6813 143.949 23.064C143.529 23.4467 143.263 23.9413 143.151 24.548H147.813C147.729 23.9507 147.5 23.4607 147.127 23.078C146.753 22.686 146.249 22.49 145.615 22.49ZM152.742 29C152.331 29 151.967 28.888 151.65 28.664C151.333 28.44 151.085 28.1367 150.908 27.754C150.731 27.362 150.642 26.914 150.642 26.41V18.766C150.642 18.5607 150.707 18.3927 150.838 18.262C150.969 18.1313 151.137 18.066 151.342 18.066C151.547 18.066 151.715 18.1313 151.846 18.262C151.977 18.3927 152.042 18.5607 152.042 18.766V26.41C152.042 26.7553 152.107 27.04 152.238 27.264C152.369 27.488 152.537 27.6 152.742 27.6H153.092C153.279 27.6 153.428 27.6653 153.54 27.796C153.661 27.9267 153.722 28.0947 153.722 28.3C153.722 28.5053 153.633 28.6733 153.456 28.804C153.279 28.9347 153.05 29 152.77 29H152.742ZM155.833 32.276C155.628 32.276 155.455 32.206 155.315 32.066C155.185 31.9353 155.119 31.7673 155.119 31.562V25.178C155.129 24.4407 155.301 23.778 155.637 23.19C155.973 22.602 156.431 22.14 157.009 21.804C157.588 21.4587 158.241 21.286 158.969 21.286C159.707 21.286 160.365 21.4587 160.943 21.804C161.522 22.14 161.979 22.602 162.315 23.19C162.661 23.778 162.833 24.4407 162.833 25.178C162.833 25.9153 162.675 26.578 162.357 27.166C162.049 27.7447 161.625 28.2067 161.083 28.552C160.542 28.888 159.931 29.056 159.249 29.056C158.699 29.056 158.19 28.944 157.723 28.72C157.266 28.4867 156.874 28.174 156.547 27.782V31.562C156.547 31.7673 156.482 31.9353 156.351 32.066C156.221 32.206 156.048 32.276 155.833 32.276ZM158.969 27.796C159.445 27.796 159.87 27.684 160.243 27.46C160.617 27.2267 160.911 26.914 161.125 26.522C161.349 26.1207 161.461 25.6727 161.461 25.178C161.461 24.674 161.349 24.226 161.125 23.834C160.911 23.4327 160.617 23.12 160.243 22.896C159.87 22.6627 159.445 22.546 158.969 22.546C158.503 22.546 158.078 22.6627 157.695 22.896C157.322 23.12 157.028 23.4327 156.813 23.834C156.599 24.226 156.491 24.674 156.491 25.178C156.491 25.6727 156.599 26.1207 156.813 26.522C157.028 26.914 157.322 27.2267 157.695 27.46C158.078 27.684 158.503 27.796 158.969 27.796Z" fill="white"/>
</svg>
