<svg width="80" height="80" viewBox="0 0 80 80" fill="none" xmlns="http://www.w3.org/2000/svg">
<circle cx="40" cy="40" r="40" fill="#59CD90"/>
<path d="M39.517 53.964C37.933 53.964 36.505 53.592 35.233 52.848C33.985 52.08 33.001 51.048 32.281 49.752C31.561 48.432 31.201 46.956 31.201 45.324C31.201 43.788 31.549 42.408 32.245 41.184C32.941 39.936 33.877 38.952 35.053 38.232C34.237 37.608 33.589 36.84 33.109 35.928C32.629 34.992 32.389 33.96 32.389 32.832C32.389 31.464 32.701 30.252 33.325 29.196C33.949 28.116 34.789 27.264 35.845 26.64C36.925 25.992 38.149 25.668 39.517 25.668C40.885 25.644 42.097 25.944 43.153 26.568C44.233 27.192 45.085 28.044 45.709 29.124C46.333 30.204 46.633 31.44 46.609 32.832C46.609 33.96 46.369 34.992 45.889 35.928C45.409 36.84 44.761 37.596 43.945 38.196C45.121 38.916 46.057 39.9 46.753 41.148C47.449 42.396 47.797 43.788 47.797 45.324C47.797 46.956 47.425 48.432 46.681 49.752C45.961 51.048 44.977 52.08 43.729 52.848C42.481 53.592 41.077 53.964 39.517 53.964ZM39.517 36.648C40.525 36.648 41.353 36.264 42.001 35.496C42.673 34.728 43.021 33.804 43.045 32.724C43.069 31.644 42.745 30.756 42.073 30.06C41.401 29.364 40.549 29.016 39.517 29.016C38.509 29.016 37.669 29.364 36.997 30.06C36.325 30.756 35.977 31.644 35.953 32.724C35.929 33.804 36.253 34.728 36.925 35.496C37.621 36.264 38.485 36.648 39.517 36.648ZM39.517 50.652C40.405 50.652 41.197 50.412 41.893 49.932C42.613 49.452 43.177 48.816 43.585 48.024C43.993 47.208 44.197 46.308 44.197 45.324C44.221 44.364 44.029 43.512 43.621 42.768C43.213 42 42.649 41.4 41.929 40.968C41.233 40.512 40.429 40.284 39.517 40.284C38.629 40.284 37.825 40.512 37.105 40.968C36.385 41.4 35.821 42 35.413 42.768C35.005 43.512 34.801 44.364 34.801 45.324C34.801 46.308 34.993 47.208 35.377 48.024C35.785 48.816 36.349 49.452 37.069 49.932C37.789 50.412 38.605 50.652 39.517 50.652Z" fill="#272727"/>
</svg>
