<?xml version="1.0" encoding="UTF-8" standalone="no"?>
<svg
   xmlns:dc="http://purl.org/dc/elements/1.1/"
   xmlns:cc="http://creativecommons.org/ns#"
   xmlns:rdf="http://www.w3.org/1999/02/22-rdf-syntax-ns#"
   xmlns:svg="http://www.w3.org/2000/svg"
   xmlns="http://www.w3.org/2000/svg"
   xmlns:sodipodi="http://sodipodi.sourceforge.net/DTD/sodipodi-0.dtd"
   xmlns:inkscape="http://www.inkscape.org/namespaces/inkscape"
   width="80"
   height="87"
   viewBox="0 0 80 87"
   fill="none"
   version="1.1"
   id="svg10"
   sodipodi:docname="helps.svg"
   inkscape:version="0.92.3 (2405546, 2018-03-11)">
  <metadata
     id="metadata16">
    <rdf:RDF>
      <cc:Work
         rdf:about="">
        <dc:format>image/svg+xml</dc:format>
        <dc:type
           rdf:resource="http://purl.org/dc/dcmitype/StillImage" />
        <dc:title></dc:title>
      </cc:Work>
    </rdf:RDF>
  </metadata>
  <defs
     id="defs14" />
  <sodipodi:namedview
     pagecolor="#ffffff"
     bordercolor="#666666"
     borderopacity="1"
     objecttolerance="10"
     gridtolerance="10"
     guidetolerance="10"
     inkscape:pageopacity="0"
     inkscape:pageshadow="2"
     inkscape:window-width="1920"
     inkscape:window-height="986"
     id="namedview12"
     showgrid="false"
     inkscape:zoom="2.7126437"
     inkscape:cx="40"
     inkscape:cy="43.5"
     inkscape:window-x="-11"
     inkscape:window-y="-11"
     inkscape:window-maximized="1"
     inkscape:current-layer="svg10" />
  <path
     d="M80 40C80 62.0914 62.0914 80 40 80C17.9086 80 0 62.0914 0 40C0 17.9086 17.9086 0 40 0C62.0914 0 80 17.9086 80 40Z"
     fill="#FAC05E"
     id="path2" />
  <path
     d="M70 40C70 56.0565 56.5685 70 40 70C23.4315 70 10 56.5685 10 40C10 23.4315 23.4315 10 40 10C56.5685 10 70 23.9435 70 40Z"
     fill="white"
     id="path4" />
  <path
     d="M39.9566 54C38.1566 54 36.5606 53.628 35.1686 52.884C33.7766 52.116 32.6846 51.084 31.8926 49.788C31.1006 48.468 30.7046 46.992 30.7046 45.36C30.7046 44.808 30.8606 44.364 31.1726 44.028C31.5086 43.668 31.9046 43.488 32.3606 43.488C32.8406 43.488 33.2366 43.668 33.5486 44.028C33.8606 44.364 34.0166 44.808 34.0166 45.36C34.0166 46.344 34.2686 47.256 34.7726 48.096C35.2766 48.912 35.9606 49.572 36.8246 50.076C37.6886 50.556 38.6606 50.796 39.7406 50.796C41.3246 50.796 42.5966 50.364 43.5566 49.5C44.5406 48.612 45.0326 47.376 45.0326 45.792C45.0326 44.784 44.8166 43.884 44.3846 43.092C43.9526 42.276 43.3646 41.628 42.6206 41.148C41.8766 40.668 41.0366 40.428 40.1006 40.428C39.5726 40.428 39.1286 40.248 38.7686 39.888C38.4326 39.528 38.2646 39.084 38.2646 38.556C38.2646 38.028 38.4326 37.596 38.7686 37.26C39.1286 36.9 39.5726 36.72 40.1006 36.72C40.7726 36.72 41.4206 36.552 42.0446 36.216C42.6686 35.856 43.1846 35.388 43.5926 34.812C44.0006 34.212 44.2046 33.54 44.2046 32.796C44.2046 31.74 43.8206 30.852 43.0526 30.132C42.2846 29.412 41.3006 29.052 40.1006 29.052C39.1886 29.052 38.3486 29.232 37.5806 29.592C36.8366 29.952 36.2366 30.432 35.7806 31.032C35.3486 31.632 35.1326 32.304 35.1326 33.048C35.1326 33.6 34.9766 34.068 34.6646 34.452C34.3526 34.812 33.9566 34.992 33.4766 34.992C33.0206 34.992 32.6246 34.824 32.2886 34.488C31.9766 34.128 31.8206 33.684 31.8206 33.156C31.8206 31.764 32.1806 30.516 32.9006 29.412C33.6206 28.308 34.6046 27.444 35.8526 26.82C37.1006 26.172 38.4926 25.848 40.0286 25.848C41.4446 25.848 42.7166 26.16 43.8446 26.784C44.9966 27.384 45.8966 28.212 46.5446 29.268C47.2166 30.3 47.5526 31.476 47.5526 32.796C47.5526 33.732 47.3366 34.56 46.9046 35.28C46.4966 36 45.9686 36.624 45.3206 37.152C44.6726 37.656 43.9886 38.076 43.2686 38.412C45.1646 39.06 46.5326 40.044 47.3726 41.364C48.2366 42.66 48.6686 44.148 48.6686 45.828C48.6686 47.388 48.2726 48.792 47.4806 50.04C46.6886 51.264 45.6326 52.236 44.3126 52.956C42.9926 53.652 41.5406 54 39.9566 54Z"
     fill="#272727"
     id="path6" />
  <rect
     x="40"
     y="58"
     width="40"
     height="29"
     fill="white"
     id="rect8" />
</svg>
